<svg xmlns="http://www.w3.org/2000/svg" viewBox="0 0 192 192">
  <defs>
    <clipPath id="c">
      <circle cx="96" cy="96" r="88"/>
    </clipPath>
  </defs>

  <!-- Background -->
  <circle cx="96" cy="96" r="96" fill="#0f1a2e"/>

  <!-- Aperture blades -->
  <g clip-path="url(#c)" transform="translate(96,96)">
    <path d="M-12,-72 C28,-48 52,12 18,68 C-2,42 -28,-8 -12,-72Z" fill="#3a78a8" opacity="0.9" transform="rotate(0)"/>
    <path d="M-12,-72 C28,-48 52,12 18,68 C-2,42 -28,-8 -12,-72Z" fill="#4e90be" opacity="0.85" transform="rotate(60)"/>
    <path d="M-12,-72 C28,-48 52,12 18,68 C-2,42 -28,-8 -12,-72Z" fill="#2e6a96" opacity="0.9" transform="rotate(120)"/>
    <path d="M-12,-72 C28,-48 52,12 18,68 C-2,42 -28,-8 -12,-72Z" fill="#3a78a8" opacity="0.85" transform="rotate(180)"/>
    <path d="M-12,-72 C28,-48 52,12 18,68 C-2,42 -28,-8 -12,-72Z" fill="#4e90be" opacity="0.9" transform="rotate(240)"/>
    <path d="M-12,-72 C28,-48 52,12 18,68 C-2,42 -28,-8 -12,-72Z" fill="#2e6a96" opacity="0.85" transform="rotate(300)"/>
  </g>

  <!-- Center -->
  <circle cx="96" cy="96" r="11" fill="#0f1a2e"/>
  <circle cx="96" cy="96" r="6" fill="#3a78a8"/>
</svg>
