<svg xmlns="http://www.w3.org/2000/svg" viewBox="46 16 159 204">
  <!-- Cropped tight to the "7" mark (no padding) for the header lockup -->
  <g transform="translate(38,3) scale(0.9)">

    <!-- Seven body -->
    <path d="M 12,18 L 182,18 L 182,62 L 112,238 L 65,238 L 98,62 L 12,62 Z" fill="#1d3557"/>

    <!-- Feather/circuit spine -->
    <path d="M 155,30 Q 130,135 90,232"
          stroke="white" stroke-width="2.5" fill="none" stroke-linecap="round"/>

    <!-- Branch pair 1 -->
    <line x1="148" y1="50" x2="168" y2="44" stroke="white" stroke-width="1.8" stroke-linecap="round"/>
    <circle cx="172" cy="42" r="3.5" fill="white"/>
    <line x1="146" y1="60" x2="125" y2="66" stroke="white" stroke-width="1.8" stroke-linecap="round"/>
    <circle cx="121" cy="68" r="3.5" fill="white"/>

    <!-- Branch pair 2 -->
    <line x1="140" y1="84" x2="160" y2="78" stroke="white" stroke-width="1.8" stroke-linecap="round"/>
    <circle cx="164" cy="76" r="3.5" fill="white"/>
    <line x1="138" y1="94" x2="117" y2="100" stroke="white" stroke-width="1.8" stroke-linecap="round"/>
    <circle cx="113" cy="102" r="3.5" fill="white"/>

    <!-- Branch pair 3 -->
    <line x1="131" y1="116" x2="152" y2="110" stroke="white" stroke-width="1.8" stroke-linecap="round"/>
    <circle cx="156" cy="108" r="3.5" fill="white"/>
    <line x1="129" y1="126" x2="108" y2="132" stroke="white" stroke-width="1.8" stroke-linecap="round"/>
    <circle cx="104" cy="134" r="3.5" fill="white"/>

    <!-- Branch pair 4 -->
    <line x1="121" y1="147" x2="141" y2="141" stroke="white" stroke-width="1.8" stroke-linecap="round"/>
    <circle cx="145" cy="139" r="3.5" fill="white"/>
    <line x1="119" y1="157" x2="98" y2="163" stroke="white" stroke-width="1.8" stroke-linecap="round"/>
    <circle cx="94" cy="165" r="3.5" fill="white"/>

    <!-- Branch pair 5 -->
    <line x1="111" y1="177" x2="131" y2="171" stroke="white" stroke-width="1.8" stroke-linecap="round"/>
    <circle cx="135" cy="169" r="3.5" fill="white"/>
    <line x1="109" y1="187" x2="88" y2="193" stroke="white" stroke-width="1.8" stroke-linecap="round"/>
    <circle cx="84" cy="195" r="3.5" fill="white"/>

    <!-- Branch pair 6 -->
    <line x1="100" y1="208" x2="120" y2="202" stroke="white" stroke-width="1.8" stroke-linecap="round"/>
    <circle cx="124" cy="200" r="3.5" fill="white"/>
    <line x1="98" y1="218" x2="77" y2="224" stroke="white" stroke-width="1.8" stroke-linecap="round"/>
    <circle cx="73" cy="226" r="3.5" fill="white"/>

  </g>
</svg>
